<svg width="34" height="34" viewBox="0 0 34 34" fill="none" xmlns="http://www.w3.org/2000/svg">
<path d="M26.9745 5.32667C25.4926 3.85244 24.6758 1.95953 24.676 0H17.9758V23.4222C17.9252 24.69 17.3112 25.8911 16.2634 26.7722C15.2156 27.6532 13.816 28.1452 12.3597 28.1444C9.28061 28.1444 6.72194 25.9533 6.72194 23.2333C6.72194 19.9844 10.3214 17.5478 14.0293 18.5489V12.58C6.54847 11.7111 0 16.7733 0 23.2333C0 29.5233 5.98469 34 12.338 34C19.1467 34 24.676 29.1833 24.676 23.2333V11.3522C27.393 13.0519 30.655 13.9639 34 13.9589V8.12222C34 8.12222 29.9235 8.29222 26.9745 5.32667Z" fill="white"/>
</svg>
